Coordinates
version=1
nRows=24
nColumns=24
inDegrees=yes

Units are S.I. units (second, meters, Newtons, ...)
Angles are in degrees.

endheader
time	pelvis_tilt	pelvis_list	pelvis_rotation	pelvis_tx	pelvis_ty	pelvis_tz	hip_flexion_r	hip_adduction_r	hip_rotation_r	knee_angle_r	ankle_angle_r	subtalar_angle_r	mtp_angle_r	hip_flexion_l	hip_adduction_l	hip_rotation_l	knee_angle_l	ankle_angle_l	subtalar_angle_l	mtp_angle_l	lumbar_extension	lumbar_bending	lumbar_rotation
      0.40000000	      5.20514082	     -1.91801496	     -0.86580315	      0.60176552	      1.04544409	     -0.02166068	     19.68564084	     -2.80054649	     -6.55213344	    -55.15572884	      2.76501534	      0.00481636	      0.00000000	     -6.25063266	      1.23962279	     -0.93266220	     -7.28764812	      5.46037136	      0.05986948	      0.00000000	    -16.77343365	     -0.23593720	     -5.25185949
      0.41666667	      5.17144020	     -1.78525619	     -0.70814416	      0.59903123	      1.04451854	     -0.02304243	     20.19187107	     -3.02098622	     -7.04348472	    -50.30073764	      2.78087098	     -0.01756237	      0.00000000	     -7.70674269	      1.46224505	     -0.70037507	     -6.29555721	      5.66639918	     -0.00484361	      0.00000000	    -17.05358853	     -0.20246996	     -5.56784505
      0.43333333	      5.10380734	     -1.46119517	     -0.78053567	      0.59678760	      1.04298763	     -0.02317566	     20.50002224	     -3.36677562	     -7.60103012	    -44.97245133	      2.67337701	     -0.00692296	      0.00000000	     -9.18233294	      1.86061925	     -0.74452577	     -5.26367404	      5.91374831	     -0.01855382	      0.00000000	    -17.09982035	     -0.50928836	     -5.53586826
      0.45000000	      5.22856359	     -1.00814237	     -0.66550015	      0.59465765	      1.04126345	     -0.02342026	     20.32670106	     -3.85294685	     -8.44646717	    -39.19767552	      2.42289279	      0.03340633	      0.00000000	    -10.77335843	      2.35771990	     -0.56381296	     -4.41355543	      6.25904116	     -0.02287996	      0.00000000	    -17.32905359	     -0.87600727	     -5.66785942
      0.46666667	      5.03877307	     -0.30500723	     -0.61568842	      0.59211505	      1.03859892	     -0.02346773	     20.38214140	     -4.44277321	     -9.15721369	    -33.15807535	      1.97895812	      0.00940001	      0.00000000	    -11.87524316	      3.10774330	     -0.37681115	     -3.83143932	      6.68768337	     -0.02920823	      0.00000000	    -17.22774590	     -1.58149145	     -5.86042843
      0.48333333	      5.01036654	      0.00891301	     -0.18482788	      0.59080571	      1.03622223	     -0.02316477	     19.73729442	     -4.53739480	    -10.18710584	    -26.49692770	      1.45155944	      0.01005692	      0.00000000	    -13.42044903	      3.29293925	      0.15373545	     -2.85912659	      6.98512426	     -0.01602888	      0.00000000	    -17.24680364	     -1.78678270	     -6.16652584
      0.50000000	      4.87493238	      0.45051236	     -0.20404087	      0.58980288	      1.03318442	     -0.02175348	     19.20784808	     -4.43637401	    -10.25214362	    -19.88879886	      0.96233037	      0.00566321	      0.00000000	    -14.84408390	      3.66918650	      0.24606168	     -1.99870191	      7.31043612	     -0.03576983	      0.00000000	    -17.09270998	     -2.29559549	     -5.92604839
      0.51666667	      4.68620175	      1.00031862	     -0.11541090	      0.58850948	      1.02958645	     -0.02097577	     18.76542969	     -4.47361370	     -9.71265385	    -13.66007131	      0.66245555	      0.00955715	      0.00000000	    -16.07683008	      4.15217937	      0.51819488	     -1.39300789	      7.74326631	     -0.04070083	      0.00000000	    -16.92767246	     -2.75234933	     -6.08869159
      0.53333333	      4.48809026	      1.56563000	      0.21689388	      0.58744054	      1.02564445	     -0.02048820	     18.30852836	     -4.67120492	     -8.84299642	     -8.06632912	      0.64805893	     -0.00826062	      0.00000000	    -17.16926773	      4.56561981	      1.09608488	     -1.09324164	      8.32532029	     -0.06736303	      0.00000000	    -16.73544534	     -3.14685266	     -6.26650790
      0.55000000	      4.40242974	      2.16949319	      0.11767563	      0.58696637	      1.02167006	     -0.01958101	     17.83830533	     -4.91078740	     -7.29818849	     -3.36719431	      0.85786143	     -0.01481734	      0.00000000	    -18.46395647	      5.12770173	      1.30927020	     -0.70995812	      8.77475882	     -0.08935974	      0.00000000	    -16.61637210	     -3.58204834	     -6.28141989
      0.56666667	      4.34631701	      2.61143089	      0.08807794	      0.58610332	      1.01777278	     -0.01884314	     17.74653469	     -5.15350051	     -5.85210291	     -0.40579940	      1.38195020	      0.01000242	      0.00000000	    -19.57809542	      5.49403411	      1.59124109	     -0.72091224	      9.38863293	     -0.06152810	      0.00000000	    -16.56528993	     -3.81158153	     -6.12414137
      0.58333333	      4.17374472	      2.94833094	      0.75897330	      0.58445686	      1.01429183	     -0.01865970	     17.97887392	     -5.54424188	     -5.46976375	      0.97710010	      1.76911819	      0.00030425	      0.00000000	    -20.08277976	      5.49234112	      2.47549458	     -1.62928024	     10.29711404	      0.02412394	      0.00000000	    -16.64546233	     -3.69700681	     -6.62421209
      0.60000000	      4.12438229	      2.99617520	      0.84489419	      0.58506493	      1.01154000	     -0.01686936	     18.24503107	     -5.42278168	     -5.02966234	      0.91104990	      1.94844562	      0.07536974	      0.00000000	    -20.93972424	      5.30753494	      2.83548724	     -2.31502992	     10.89035421	     -0.09557392	      0.00000000	    -16.46423646	     -3.47599203	     -6.33655811
      0.61666667	      4.09309165	      2.68245894	      1.11010546	      0.58576701	      1.00927162	     -0.01443471	     18.77696516	     -4.95600734	     -5.05329078	     -0.70156504	      1.63425032	      0.02081828	      0.00000000	    -21.55173223	      4.63282761	      3.09910052	     -3.47572420	     11.57164545	     -0.03165061	      0.00000000	    -16.42698024	     -2.89279806	     -6.48538273
      0.63333333	      4.11199772	      2.59825133	      1.65488886	      0.58675702	      1.00779521	     -0.01201888	     19.40558007	     -4.82530906	     -5.41474916	     -3.41927488	      0.94945310	     -0.06864075	      0.00000000	    -21.99692925	      4.06939283	      3.74438299	     -5.04124191	     12.05771404	      0.01600730	      0.00000000	    -16.45752607	     -2.49302909	     -6.78838777
      0.65000000	      3.98328250	      2.47954629	      2.13399230	      0.58820418	      1.00653002	     -0.00900619	     20.25725457	     -4.66571251	     -5.86239428	     -6.68595275	      0.01114974	     -0.00673007	      0.00000000	    -22.15594092	      3.48915361	      4.37689540	     -6.84367399	     12.39078694	      0.05757047	      0.00000000	    -16.24033343	     -2.14376554	     -7.18068684
      0.66666667	      3.82777079	      2.43208183	      2.51074397	      0.59015625	      1.00591121	     -0.00648376	     21.00326292	     -4.62513697	     -6.13563603	     -9.92528762	     -1.06179016	      0.00069910	      0.00000000	    -22.08622507	      3.10279583	      5.00483016	     -9.05405547	     12.38570519	      0.04765092	      0.00000000	    -15.94060406	     -1.66461058	     -7.32709269
      0.68333333	      3.96006769	      2.36971706	      2.65252632	      0.59185943	      1.00615963	     -0.00368502	     21.55669061	     -4.52649576	     -6.13759895	    -13.49163692	     -1.63845310	      0.03099553	      0.00000000	    -21.95426062	      2.81643844	      5.37971065	    -11.92064298	     12.10372099	      0.09181108	      0.00000000	    -15.90369836	     -1.16980785	     -7.24828795
      0.70000000	      4.18225533	      2.10128465	      2.93467998	      0.59525473	      1.00736242	     -0.00127969	     21.67203616	     -4.28105712	     -6.19033520	    -16.77568694	     -1.69454415	      0.02114706	      0.00000000	    -21.64402963	      2.31491715	      5.76934825	    -15.35726458	     11.30187701	      0.01485957	      0.00000000	    -15.95520893	     -0.48454695	     -7.31021662
      0.71666667	      4.51551686	      1.83682558	      3.18553816	      0.59832859	      1.00923237	      0.00108511	     21.16781774	     -4.01469215	     -6.31376654	    -19.12842343	     -1.56124307	      0.03636065	      0.00000000	    -20.83780781	      1.86793079	      5.89241274	    -19.77917589	     10.01550116	      0.00773445	      0.00000000	    -16.01394363	      0.34955414	     -7.44092361
      0.73333333	      4.59379827	      1.69103235	      3.32631314	      0.60053998	      1.01074609	      0.00420071	     20.85543527	     -3.79400202	     -6.31344742	    -21.24829482	     -1.15631133	     -0.01899117	      0.00000000	    -18.79067258	      1.59766542	      5.53688974	    -25.76908374	      8.29475062	      0.02372118	      0.00000000	    -15.88900728	      0.82034791	     -7.26879325
      0.75000000	      4.74048681	      1.39833978	      3.42500057	      0.60319057	      1.01274551	      0.00729916	     19.99030593	     -3.38542320	     -6.54800079	    -22.55468257	     -0.45770324	     -0.00014885	      0.00000000	    -16.41809351	      1.07545921	      4.60725979	    -32.07896232	      5.54850242	      0.05878245	      0.00000000	    -15.79967594	      1.40745446	     -7.49935162
      0.76666667	      4.64758353	      1.03680951	      3.53927744	      0.60514911	      1.01448335	      0.01027629	     19.23215932	     -2.87346007	     -6.75982442	    -23.52812367	      0.52794428	     -0.02128560	      0.00000000	    -13.21524866	      0.27624742	      3.14672081	    -38.83327785	      1.94007890	      0.07699562	      0.00000000	    -15.52764526	      2.05339801	     -7.20773318
      0.78333333	      4.56430083	      0.47456054	      3.60272310	      0.60572025	      1.01623302	      0.01377677	     18.22435543	     -2.05470219	     -7.04453873	    -23.81287522	      1.43233879	     -0.02237775	      0.00000000	     -9.76335822	     -1.00015998	      1.38530315	    -45.33529100	     -1.98755849	      0.03908151	      0.00000000	    -15.34922434	      2.77766764	     -6.73024362
